<svg viewBox="0 0 512 512" fill="none" xmlns="http://www.w3.org/2000/svg">
<g clip-path="url(#clip0_44_135)">
<rect width="512" height="512" rx="52" fill="url(#paint0_linear_44_135)"/>
<path d="M66.804 459L134.498 51.2407H310.504C340.767 51.2407 366.319 56.7491 387.158 67.7661C407.997 78.783 422.996 94.6447 432.155 115.351C441.313 136.058 443.504 160.879 438.725 189.815C433.947 219.017 423.394 243.639 407.068 263.682C390.874 283.592 370.234 298.724 345.148 309.077C320.194 319.297 292.187 324.408 261.127 324.408H156.001L170.337 238.396H253.163C266.171 238.396 277.586 236.803 287.408 233.617C297.231 230.299 305.195 225.122 311.3 218.088C317.406 210.92 321.388 201.496 323.246 189.815C325.105 178.135 324.176 168.644 320.459 161.344C316.742 153.911 310.57 148.468 301.943 145.017C293.315 141.434 282.63 139.642 269.887 139.642H230.863L177.504 459H66.804ZM336.785 271.845L407.665 459H287.408L218.917 271.845H336.785Z" fill="white"/>
</g>
<defs>
<linearGradient id="paint0_linear_44_135" x1="512" y1="256" x2="-3.90597e-06" y2="256" gradientUnits="userSpaceOnUse">
<stop stop-color="#FB64B6"/>
<stop offset="1" stop-color="#A3004C"/>
</linearGradient>
<clipPath id="clip0_44_135">
<rect width="512" height="512" fill="white"/>
</clipPath>
</defs>
</svg>
